<svg width="24" height="24" viewBox="0 0 24 24" fill="none" xmlns="http://www.w3.org/2000/svg">
<path d="M9.31215 11.1585L8.00167 12L9.31215 12.8415L15.9171 17.0825C14.4743 18.8663 12.289 20 9.85246 20C5.53118 20 2 16.4339 2 12C2 7.56607 5.53118 4 9.85246 4C12.289 4 14.4743 5.13371 15.9171 6.91747L9.31215 11.1585ZM17.7049 12C17.7049 13.2105 17.4417 14.3563 16.9711 15.3825L11.7032 12L16.9711 8.61747C17.4417 9.64369 17.7049 10.7895 17.7049 12Z" stroke="#404853" stroke-width="2"/>
<path d="M11.3279 12L18.7049 7.125L18.7049 12L18.7049 16.875L11.3279 12Z" fill="#FAFAFA"/>
<ellipse cx="9.48376" cy="7.875" rx="1.10656" ry="1.125" fill="#404853"/>
<path d="M17.9673 9.75L22.3935 14.25M22.3935 9.75L17.9673 14.25" stroke="#404853" stroke-width="1.5" stroke-linecap="round" stroke-linejoin="round"/>
</svg>
