<svg width="20" height="10" viewBox="0 0 24 24" fill="none" xmlns="http://www.w3.org/2000/svg">
<path d="M19.25 20.4445C19.25 20.6914 19.1405 20.983 18.828 21.3114C18.5118 21.6437 18.0188 21.977 17.3523 22.2733C16.021 22.8649 14.1293 23.25 12 23.25C9.87068 23.25 7.979 22.8649 6.64775 22.2733C5.98118 21.977 5.48818 21.6437 5.17198 21.3114C4.85945 20.983 4.75 20.6914 4.75 20.4445C4.75 20.1976 4.85945 19.9059 5.17198 19.5775C5.48818 19.2453 5.98118 18.9119 6.64775 18.6157C7.979 18.024 9.87068 17.6389 12 17.6389C14.1293 17.6389 16.021 18.024 17.3523 18.6157C18.0188 18.9119 18.5118 19.2453 18.828 19.5775C19.1405 19.9059 19.25 20.1976 19.25 20.4445Z" stroke="#404853" stroke-width="2"/>
<path d="M20 7.95266C20 14.8695 12 21.3333 12 21.3333C12 21.3333 4 14.8695 4 7.95266C4 3.56053 7.58172 0 12 0C16.4183 0 20 3.56053 20 7.95266Z" />
<path d="M20 7.95266C20 14.8695 12 21.3333 12 21.3333C12 21.3333 4 14.8695 4 7.95266C4 3.56053 7.58172 0 12 0C16.4183 0 20 3.56053 20 7.95266Z" />
<path d="M20 7.95266C20 14.8695 12 21.3333 12 21.3333C12 21.3333 4 14.8695 4 7.95266C4 3.56053 7.58172 0 12 0C16.4183 0 20 3.56053 20 7.95266Z" stroke="#404853" stroke-width="2" stroke-linejoin="round"/>
<circle cx="11.9999" cy="7.99989" r="2.80556" stroke="#404853" stroke-width="2"/>
</svg>
