<svg  width="20" height="30" viewBox="0 0 25 24" xmlns="http://www.w3.org/2000/svg">
<path d="M23.425 22.425L18.25 17.25" stroke="#404853" strokeWidth="2" strokeLinecap="round"/>
<mask id="path-2-inside-1" fill="white">
<path d="M21.3462 10.1731C21.3462 12.9849 20.2054 15.5303 18.3613 17.3717C16.5208 19.2096 13.9797 20.3462 11.1731 20.3462C5.55464 20.3462 1 15.7915 1 10.1731C1 4.55464 5.55464 0 11.1731 0C16.7915 0 21.3462 4.55464 21.3462 10.1731Z"/>
</mask>
<path d="M23.2935 23.7078C23.6844 24.0979 24.3176 24.0973 24.7078 23.7065C25.0979 23.3156 25.0973 22.6824 24.7065 22.2922L23.2935 23.7078ZM17.6549 18.0795L23.2935 23.7078L24.7065 22.2922L19.0678 16.664L17.6549 18.0795ZM18.3613 17.3717L16.9481 15.9565L16.9481 15.9565L18.3613 17.3717ZM11.1731 18.3462C6.65921 18.3462 3 14.6869 3 10.1731H-1C-1 16.8961 4.45007 22.3462 11.1731 22.3462V18.3462ZM3 10.1731C3 5.65921 6.65921 2 11.1731 2V-2C4.45007 -2 -1 3.45007 -1 10.1731H3ZM11.1731 2C15.6869 2 19.3462 5.65921 19.3462 10.1731H23.3462C23.3462 3.45007 17.8961 -2 11.1731 -2V2ZM19.3462 10.1731C19.3462 12.4327 18.4318 14.4749 16.9481 15.9565L19.7745 18.7869C21.9789 16.5858 23.3462 13.5372 23.3462 10.1731H19.3462ZM16.9481 15.9565C15.4673 17.4353 13.4285 18.3462 11.1731 18.3462V22.3462C14.5309 22.3462 17.5743 20.984 19.7745 18.7869L16.9481 15.9565Z" fill="#404853" mask="url(#path-2-inside-1)"/>
</svg>
