<svg width="24" height="24" viewBox="0 0 24 24" fill="none" xmlns="http://www.w3.org/2000/svg">
<path d="M13.7172 18.2046C13.6981 18.1919 13.6786 18.1799 13.6587 18.1685C12.7386 17.6445 11.6614 17.6445 10.7413 18.1685C10.7214 18.1799 10.7019 18.1919 10.6828 18.2046L5.16277 21.8724C4.81099 22.1061 4.34844 22.0088 4.13653 21.6922C4.01779 21.4493 4 21.3497 4 21.2207V1.74656C4 1.34137 4.33772 1 4.75238 1H19.6476C20.0623 1 20.4 1.34137 20.4 1.74656V21.2207C20.4 21.6259 20.0623 21.9673 19.6476 21.9673C19.4449 21.9673 19.2994 21.9137 19.2372 21.8724L13.7172 18.2046Z" stroke="#404853" stroke-width="2" stroke-linecap="round" stroke-linejoin="round"/>
<path d="M12.2 11.5812L9.94184 12.88L10.36 10.1958L8.52002 8.37743L11.0291 7.94449L12.2 5.52002L13.3709 7.94449L15.88 8.37743L14.04 10.1958L14.4582 12.88L12.2 11.5812Z" stroke="#404853" stroke-width="1.8" stroke-linecap="round" stroke-linejoin="round"/>
</svg>
