<svg width="25" height="24" viewBox="0 0 25 24" fill="none" xmlns="http://www.w3.org/2000/svg">
<path d="M12.7347 1L13.6504 0.598245C13.491 0.23476 13.1316 -1.87474e-08 12.7347 0C12.3378 1.87474e-08 11.9784 0.234761 11.8189 0.598246L12.7347 1ZM9.44898 8.48936L9.61293 9.47583C9.94622 9.42044 10.229 9.2005 10.3647 8.89112L9.44898 8.48936ZM1 9.89362L0.836045 8.90715C0.45141 8.97108 0.139008 9.25274 0.0357225 9.62872C-0.0675628 10.0047 0.0571063 10.4064 0.355104 10.6579L1 9.89362ZM7.10204 15.0426L8.08674 15.2168C8.14886 14.8658 8.0194 14.5082 7.74694 14.2783L7.10204 15.0426ZM5.69388 23L4.70918 22.8257C4.64253 23.2024 4.79653 23.584 5.10589 23.8089C5.41525 24.0338 5.82578 24.0625 6.16345 23.8829L5.69388 23ZM12.7347 19.2553L13.2043 18.3724C12.9107 18.2163 12.5587 18.2163 12.2651 18.3724L12.7347 19.2553ZM19.7755 23L19.3059 23.8829C19.6436 24.0625 20.0541 24.0338 20.3635 23.8089C20.6729 23.584 20.8269 23.2024 20.7602 22.8257L19.7755 23ZM18.3673 15.0426L17.6926 14.3045C17.4399 14.5355 17.323 14.8797 17.3826 15.2168L18.3673 15.0426ZM24 9.89362L24.6747 10.6317C24.9559 10.3746 25.0666 9.98006 24.9602 9.6142C24.8537 9.24835 24.5486 8.97479 24.1733 8.90875L24 9.89362ZM16.0204 8.48936L15.1047 8.89112C15.239 9.19742 15.5177 9.41626 15.8471 9.47423L16.0204 8.48936ZM11.8189 0.598246L8.53323 8.08761L10.3647 8.89112L13.6504 1.40175L11.8189 0.598246ZM9.28502 7.50289L0.836045 8.90715L1.16396 10.8801L9.61293 9.47583L9.28502 7.50289ZM0.355104 10.6579L6.45714 15.8068L7.74694 14.2783L1.6449 9.12935L0.355104 10.6579ZM6.11734 14.8683L4.70918 22.8257L6.67858 23.1743L8.08674 15.2168L6.11734 14.8683ZM6.16345 23.8829L13.2043 20.1382L12.2651 18.3724L5.22431 22.1171L6.16345 23.8829ZM12.2651 20.1382L19.3059 23.8829L20.2451 22.1171L13.2043 18.3724L12.2651 20.1382ZM20.7602 22.8257L19.352 14.8683L17.3826 15.2168L18.7908 23.1743L20.7602 22.8257ZM19.0421 15.7806L24.6747 10.6317L23.3253 9.15553L17.6926 14.3045L19.0421 15.7806ZM24.1733 8.90875L16.1937 7.5045L15.8471 9.47423L23.8267 10.8785L24.1733 8.90875ZM16.9362 8.08761L13.6504 0.598245L11.8189 1.40175L15.1047 8.89112L16.9362 8.08761Z" fill="#404853"/>
</svg>
