<svg width="25" height="25" viewBox="0 0 25 25" fill="none" xmlns="http://www.w3.org/2000/svg">
<path d="M21.046 10.0897C21.0195 8.80185 20.682 7.5379 20.0608 6.39895C19.4395 5.26001 18.5516 4.27767 17.4681 3.53052C16.3846 2.78337 15.1356 2.29214 13.8209 2.09613C12.5063 1.90012 11.1626 2.00477 9.89717 2.40171C8.63178 2.79865 7.47988 3.47685 6.5336 4.38208C5.58733 5.28731 4.87294 6.39443 4.44759 7.61489C4.02224 8.83535 3.89773 10.1353 4.08401 11.4107C4.2703 12.6861 4.76222 13.9016 5.52042 14.9599V14.9599C5.52042 14.9599 10.0381 22.0352 12.7414 21.9999C15.4446 21.9645 19.67 14.7005 19.67 14.7005C20.5922 13.3303 21.0713 11.725 21.046 10.0897V10.0897ZM12.6013 14.9953C11.6283 15.0126 10.6718 14.7501 9.85292 14.2409C9.034 13.7318 8.38941 12.9989 8.00071 12.1349C7.61201 11.2709 7.49665 10.3146 7.66923 9.38715C7.84181 8.45966 8.29457 7.60257 8.97025 6.92432C9.64592 6.24606 10.5141 5.77711 11.4651 5.57679C12.416 5.37647 13.4069 5.45379 14.3125 5.79895C15.218 6.14411 15.9975 6.74162 16.5524 7.51588C17.1072 8.29014 17.4125 9.20636 17.4295 10.1486C17.4507 11.4108 16.9544 12.6295 16.0494 13.538C15.1444 14.4464 13.9045 14.9705 12.6013 14.9953Z" fill="#7F57FF"/>
<path d="M12.4852 13.2542C14.1162 13.2542 15.4383 11.9321 15.4383 10.3012C15.4383 8.67026 14.1162 7.34814 12.4852 7.34814C10.8543 7.34814 9.53223 8.67026 9.53223 10.3012C9.53223 11.9321 10.8543 13.2542 12.4852 13.2542Z" fill="#FF0073"/>
</svg>
